<svg width="46" height="46" viewBox="0 0 46 46" fill="none" xmlns="http://www.w3.org/2000/svg">
<path d="M36.608 20.1644L36.6079 20.164C36.0214 17.4135 34.6187 14.9278 32.5585 12.9771C32.2887 12.7211 31.8706 12.5432 31.4812 12.5801C31.0962 12.5999 30.7326 12.7708 30.473 13.0595C29.0623 14.6242 28.1453 16.1617 27.807 17.5576C27.4642 18.9721 27.7149 20.2694 28.6771 21.231C29.5704 22.1243 31.0406 22.5399 32.5027 22.5399C33.6377 22.5399 34.832 22.2909 35.8506 21.7644L35.621 21.3202L35.8506 21.7644C36.4344 21.4626 36.7447 20.8077 36.608 20.1644ZM9.39179 25.9855L9.39187 25.9858C9.97844 28.7373 11.3812 31.223 13.4414 33.1737C13.7125 33.4306 14.0716 33.5729 14.4441 33.5729C14.4508 33.5729 14.4784 33.5731 14.5088 33.5712C14.8986 33.5537 15.2658 33.3807 15.5269 33.0903C16.9367 31.5256 17.8531 29.9882 18.1914 28.5924C18.5341 27.178 18.284 25.8807 17.3229 24.9189L17.3228 24.9188C16.5313 24.1273 15.2885 23.714 14.0115 23.6281C12.7241 23.5415 11.321 23.7809 10.1495 24.3854L10.1492 24.3855C9.56547 24.6873 9.25516 25.3422 9.39179 25.9855ZM10.1491 21.7645L10.1495 21.7647C11.1695 22.2909 12.3618 22.54 13.497 22.54C14.9591 22.54 16.4294 22.1244 17.3227 21.2311C18.2848 20.2694 18.5355 18.9721 18.1927 17.5576C17.8545 16.1618 16.9376 14.6245 15.527 13.0599C15.2675 12.7711 14.9041 12.6004 14.5195 12.5803C14.115 12.5406 13.7078 12.7244 13.4415 12.977C11.3811 14.9278 9.97847 17.4135 9.39179 20.1641L9.3917 20.1645C9.25507 20.8078 9.56537 21.4627 10.1491 21.7645ZM27.2358 36.2559L27.2364 36.2557C27.8761 36.051 28.2947 35.4365 28.2492 34.7657L28.2492 34.7649C28.1234 32.9553 27.5237 31.3436 26.6043 30.1728C25.6842 29.0011 24.4225 28.2501 22.9999 28.2501C21.5772 28.2501 20.3155 29.0011 19.3954 30.1728C18.476 31.3436 17.8763 32.9554 17.7506 34.765L17.7505 34.7658C17.705 35.4366 18.1236 36.051 18.7634 36.2557L18.7639 36.2559C20.1397 36.6945 21.5649 36.9168 22.9999 36.9168C24.4349 36.9168 25.86 36.6944 27.2358 36.2559ZM28.2492 11.3111L28.2492 11.3103C28.2946 10.6415 27.8799 10.0255 27.238 9.82118C24.4852 8.94167 21.5152 8.94161 18.7623 9.821C18.1201 10.0252 17.7051 10.6413 17.7505 11.3103L17.7506 11.3111C17.8763 13.1202 18.4761 14.7317 19.3954 15.9024C20.3155 17.074 21.5772 17.825 22.9999 17.825C24.4225 17.825 25.6842 17.074 26.6043 15.9024C27.5237 14.7317 28.1234 13.1202 28.2492 11.3111ZM36.6079 25.8334L36.608 25.833C36.7447 25.1897 36.4344 24.5348 35.8506 24.2331L35.8499 24.2328C34.6779 23.6295 33.275 23.3898 31.9878 23.476C30.7112 23.5616 29.4687 23.9744 28.6772 24.7663C27.7149 25.728 27.4642 27.0257 27.807 28.4404C28.1453 29.8364 29.0621 31.374 30.4727 32.9386C30.7347 33.2301 31.1024 33.4013 31.491 33.4188C31.5215 33.4206 31.5491 33.4204 31.5557 33.4204C31.9282 33.4204 32.2873 33.2781 32.5584 33.0213C34.6187 31.0706 36.0213 28.5849 36.6079 25.8334ZM8.1665 23.0001C8.1665 14.8216 14.8214 8.16675 22.9999 8.16675C31.1784 8.16675 37.8332 14.8216 37.8332 23.0001C37.8332 31.1786 31.1784 37.8335 22.9999 37.8335C14.8214 37.8335 8.1665 31.1786 8.1665 23.0001ZM22.9999 18.6667C20.6106 18.6667 18.6665 20.6098 18.6665 23.0001C18.6665 25.3904 20.6106 27.3335 22.9999 27.3335C25.3891 27.3335 27.3332 25.3905 27.3332 23.0001C27.3332 20.6097 25.3891 18.6667 22.9999 18.6667Z" fill="#1E1B1B" stroke="#1E1B1B"/>
<path d="M0.5 23C0.5 10.5941 10.5932 0.5 23 0.5C35.4068 0.5 45.5 10.5941 45.5 23C45.5 35.4059 35.4068 45.5 23 45.5C10.5932 45.5 0.5 35.4059 0.5 23ZM5.25 23C5.25 32.7874 13.2116 40.75 23 40.75C32.7884 40.75 40.75 32.7874 40.75 23C40.75 13.2126 32.7884 5.25 23 5.25C13.2116 5.25 5.25 13.2126 5.25 23Z" fill="#1E1B1B" stroke="#1E1B1B"/>
</svg>
